<svg xmlns="http://www.w3.org/2000/svg" width="89" height="38" fill="none" viewBox="0 0 89 38">
    <path fill="#F7F7F7" fill-rule="evenodd" d="M15.768 1C7.612 1 1 7.612 1 15.768s6.612 14.767 14.768 14.767h5.359l6.242 5.899c.803.758 2.092.745 2.88-.03l5.96-5.869h37.023C81.388 30.535 88 23.924 88 15.768 88 7.612 81.388 1 73.232 1H15.768z" clip-rule="evenodd"/>
    <path fill="#5200FF" d="M21.127 30.535l.686-.727-.289-.273h-.397v1zm6.242 5.899l.687-.727-.687.727zm2.88-.03l.7.712-.7-.712zm5.96-5.869v-1h-.41l-.291.288.701.712zM2 15.768C2 8.164 8.164 2 15.768 2V0C7.059 0 0 7.06 0 15.768h2zm13.768 13.767C8.164 29.535 2 23.371 2 15.768H0c0 8.708 7.06 15.767 15.768 15.767v-2zm5.359 0h-5.36v2h5.36v-2zm6.93 6.172l-6.244-5.899-1.373 1.454 6.243 5.898 1.373-1.453zm1.49-.016c-.404.398-1.08.405-1.49.016l-1.374 1.453c1.194 1.129 3.096 1.109 4.267-.043l-1.403-1.426zm5.96-5.868l-5.96 5.868 1.403 1.425 5.96-5.868-1.402-1.425zm37.725-.288H36.21v2h37.023v-2zM87 15.768c0 7.603-6.164 13.767-13.768 13.767v2c8.709 0 15.768-7.06 15.768-15.767h-2zM73.232 2C80.836 2 87 8.164 87 15.768h2C89 7.059 81.94 0 73.232 0v2zM15.768 2h57.464V0H15.768v2z"/>
</svg>
